<svg xmlns="http://www.w3.org/2000/svg" viewBox="0 0 114.468 125.382"><defs><style>.Graphic-Style-5,.cls-1{fill:none;stroke-linecap:round;stroke-linejoin:round;stroke-width:4px}.Graphic-Style-5{stroke:#fff}.cls-1{stroke:#140404}</style></defs><g id="Layer_2" data-name="Layer 2"><g id="VECTOR"><path class="Graphic-Style-5" d="M15.142 13.54 37.308 2l14.128 26.465-8.875 4.445a9.897 9.897 0 0 0-4.07 13.393L57.985 82.82a9.897 9.897 0 0 0 13.392 4.07l8.875-4.445L94.38 108.91l-22.166 11.541a24.83 24.83 0 0 1-33.598-10.211L4.93 47.139A24.83 24.83 0 0 1 15.142 13.54z"/><path class="cls-1" d="m109.93 66.093-8.488-2.992A35.595 35.595 0 0 0 79.73 17.747l2.992-8.488a44.603 44.603 0 0 1 27.207 56.834z"/><path class="cls-1" d="m92.954 60.108-8.488-2.992a17.575 17.575 0 0 0-10.72-22.393l2.992-8.488a26.582 26.582 0 0 1 16.216 33.873z"/><path class="Graphic-Style-5" d="m109.93 66.093-8.488-2.992A35.595 35.595 0 0 0 79.73 17.747l2.992-8.488a44.603 44.603 0 0 1 27.207 56.834z"/><path class="Graphic-Style-5" d="m92.954 60.108-8.488-2.992a17.575 17.575 0 0 0-10.72-22.393l2.992-8.488a26.582 26.582 0 0 1 16.216 33.873z"/></g></g></svg>