<?xml version="1.0" encoding="UTF-8" standalone="no"?>
<!DOCTYPE svg PUBLIC "-//W3C//DTD SVG 1.1//EN" "http://www.w3.org/Graphics/SVG/1.1/DTD/svg11.dtd">
<svg width="72.00" height="48.00" viewBox="0.00 0.00 300.00 200.00" xmlns="http://www.w3.org/2000/svg" xmlns:xlink="http://www.w3.org/1999/xlink">
<g stroke-linecap="round" id="Layer_2">
<path d="M99.79,0.59 C99.79,28.96 99.79,86.75 99.79,116.18 C99.79,143.13 99.79,200.91 99.79,231.73 C99.79,239.13 99.79,253.20 99.79,259.86" fill="none" stroke="rgb(154, 111, 0)" stroke-width="1.50" stroke-opacity="1.00" stroke-linejoin="round"/>
<path d="M98.91,149.83 C73.42,149.83 22.40,149.83 -3.12,149.83 C-4.41,149.83 -6.95,149.83 -8.19,149.83" fill="none" stroke="rgb(154, 111, 0)" stroke-width="1.50" stroke-opacity="1.00" stroke-linejoin="round"/>
<path d="M98.62,99.79 C71.33,99.79 17.50,99.79 -9.05,99.79 C-16.20,99.79 -24.55,99.79 -25.75,99.79" fill="none" stroke="rgb(154, 111, 0)" stroke-width="1.50" stroke-opacity="1.00" stroke-linejoin="round"/>
<path d="M99.20,49.75 C73.49,49.75 20.02,49.75 -7.73,49.75 C-23.22,49.75 -51.55,49.75 -64.38,49.75" fill="none" stroke="rgb(154, 111, 0)" stroke-width="1.50" stroke-opacity="1.00" stroke-linejoin="round"/>
<path d="M199.87,0.59 C199.87,27.60 199.87,82.72 199.87,110.83 C199.87,142.63 199.87,203.08 199.87,231.73 C199.87,246.06 199.87,262.09 199.87,263.81 C199.87,263.81 199.87,262.20 199.87,262.20" fill="none" stroke="rgb(154, 111, 0)" stroke-width="1.50" stroke-opacity="1.00" stroke-linejoin="round"/>
<path d="M201.04,99.79 C201.04,99.79 299.66,99.79 299.66,99.79" fill="none" stroke="rgb(154, 111, 0)" stroke-width="1.50" stroke-opacity="1.00" stroke-linejoin="round"/>
<path d="M200.75,149.83 C231.10,149.83 289.45,149.83 317.44,149.83 C345.64,149.83 375.52,149.83 377.21,149.83" fill="none" stroke="rgb(154, 111, 0)" stroke-width="1.50" stroke-opacity="1.00" stroke-linejoin="round"/>
<path d="M99.79,6.73 C99.79,6.73 99.79,-13.17 99.79,-13.17" fill="none" stroke="rgb(154, 111, 0)" stroke-width="1.50" stroke-opacity="1.00" stroke-linejoin="round"/>
</g>
</svg>
