<?xml version="1.0" encoding="UTF-8" standalone="no"?>
<!DOCTYPE svg PUBLIC "-//W3C//DTD SVG 1.1//EN" "http://www.w3.org/Graphics/SVG/1.1/DTD/svg11.dtd">
<svg width="72.00" height="72.00" viewBox="0.00 0.00 300.00 300.00" xmlns="http://www.w3.org/2000/svg" xmlns:xlink="http://www.w3.org/1999/xlink">
<g stroke-linecap="round" id="Layer_2">
<path d="M150.97,40.77 C150.97,40.77 150.48,40.26 150.48,40.26 C149.35,40.06 148.76,40.11 148.32,40.68 C146.29,43.36 143.78,54.41 142.47,62.22 C141.69,67.80 139.91,80.17 138.43,85.81 C136.62,92.66 131.66,104.17 128.58,108.98 C125.30,114.03 117.33,122.53 113.79,125.38 C111.23,127.42 106.74,130.37 104.58,131.58 C98.70,134.73 88.45,138.40 83.15,139.63 C81.88,139.92 49.67,144.87 44.90,146.36 C41.66,147.40 40.23,148.83 39.94,149.67 C39.94,149.67 40.40,150.65 40.40,150.65 C40.40,150.65 42.60,152.10 42.60,152.10 C42.60,152.10 44.62,152.91 44.62,152.91 C50.84,154.85 77.64,158.92 82.12,159.95 C86.74,161.01 97.25,164.50 102.74,167.31 C108.13,170.11 117.31,177.20 121.35,181.50 C125.13,185.54 130.97,194.10 133.51,199.47 C135.80,204.35 139.31,215.74 140.37,221.59 C140.94,224.79 143.39,242.34 144.05,245.78 C145.61,253.75 147.42,257.67 148.02,258.65 C148.02,258.65 148.84,259.52 148.84,259.52 C148.84,259.52 150.50,259.52 150.50,259.52 C150.50,259.52 151.32,258.65 151.32,258.65 C151.32,258.65 152.14,257.21 152.14,257.21 C152.14,257.21 152.95,255.21 152.95,255.21 C155.28,248.02 159.40,218.63 161.95,210.37 C163.76,204.56 169.06,193.42 172.75,188.28 C175.76,184.12 184.10,175.83 187.69,173.17 C191.07,170.69 199.15,166.06 204.49,163.94 C208.75,162.27 218.84,159.53 223.02,158.80 C234.24,157.03 251.25,154.13 255.21,152.83 C255.21,152.83 257.21,152.04 257.21,152.04 C257.21,152.04 258.65,151.25 258.65,151.25 C258.65,151.25 259.52,150.46 259.52,150.46 C259.75,149.31 259.23,148.34 257.69,147.59 C254.29,145.96 241.29,143.74 231.72,142.56 C223.07,141.61 212.15,139.44 206.43,137.50 C201.19,135.70 190.90,130.38 186.55,127.01 C182.63,123.95 174.87,115.91 171.74,111.37 C168.37,106.43 163.03,94.50 161.12,87.51 C159.41,81.17 157.51,67.34 156.67,61.65 C155.41,53.92 152.73,42.89 151.27,41.09 C151.27,41.09 150.47,40.26 150.47,40.26 C150.47,40.26 148.82,40.23 148.82,40.23 C148.82,40.23 147.99,41.09 147.99,41.09 C147.99,41.09 145.52,47.10 145.52,47.10" fill="none" stroke="rgb(197, 197, 197)" stroke-width="3.00" stroke-opacity="1.00" stroke-linejoin="round"/>
</g>
</svg>
